PathFileType	4	(X/Y/Z)	/Users/itak/Documents/Research/Walk-IL/dataset/trc/00051_00006.trc
DataRate	CameraRate	NumFrames	NumMarkers	Units	OrigDataRate	OrigDataStartFrame	OrigNumFrames
100.000000	100.000000	4	53	mm	100.000000	263	527
Frame#	Time	RPSI			LPSI			L3			STRN			T10			C7			CLAV			RBAK			LBAK			LSHO			LUPA			LAEL			LAOL			LWTS			LWPS			LFRA			LIFD			LHPS			LHTS			RSHO			RUPA			RAEL			RAOL			RWTS			RWPS			RFRA			RIFD			RHTS			RHPS			RBHD			LFHD			RFHD			LBHD			LHIP			RHIP			RASI			LASI			LKNE			LTHI			LANK			LTIP			LTOE			LMT1			LMT5			LHEE			RKNE			RTHI			RANK			RTIP			RTOE			RMT1			RMT5			RHEE			
		X1	Y1	Z1	X2	Y2	Z2	X3	Y3	Z3	X4	Y4	Z4	X5	Y5	Z5	X6	Y6	Z6	X7	Y7	Z7	X8	Y8	Z8	X9	Y9	Z9	X10	Y10	Z10	X11	Y11	Z11	X12	Y12	Z12	X13	Y13	Z13	X14	Y14	Z14	X15	Y15	Z15	X16	Y16	Z16	X17	Y17	Z17	X18	Y18	Z18	X19	Y19	Z19	X20	Y20	Z20	X21	Y21	Z21	X22	Y22	Z22	X23	Y23	Z23	X24	Y24	Z24	X25	Y25	Z25	X26	Y26	Z26	X27	Y27	Z27	X28	Y28	Z28	X29	Y29	Z29	X30	Y30	Z30	X31	Y31	Z31	X32	Y32	Z32	X33	Y33	Z33	X34	Y34	Z34	X35	Y35	Z35	X36	Y36	Z36	X37	Y37	Z37	X38	Y38	Z38	X39	Y39	Z39	X40	Y40	Z40	X41	Y41	Z41	X42	Y42	Z42	X43	Y43	Z43	X44	Y44	Z44	X45	Y45	Z45	X46	Y46	Z46	X47	Y47	Z47	X48	Y48	Z48	X49	Y49	Z49	X50	Y50	Z50	X51	Y51	Z51	X52	Y52	Z52	X53	Y53	Z53	

264	2.63	396.7400817871094	1028.032836914062	-179.7708435058594	368.7550964355469	1013.697509765625	-353.7945556640625	388.6614379882812	1083.455322265625	-273.1452026367188	653.7560424804688	1261.256958007812	-301.1856384277344	383.6492309570312	1218.163818359375	-278.5544128417969	459.0414428710938	1479.505249023438	-293.8533935546875	632.2009887695312	1378.046875	-303.4664611816406	393.1943969726562	1347.443603515625	-209.4733428955078	427.8457336425781	1442.424438476562	-392.2845153808594	526.9303588867188	1439.816650390625	-470.7981872558594	498.3043212890625	1315.8505859375	-549.1537475585938	508.2800903320312	1102.494873046875	-578.1474609375	451.7935180664062	1086.004638671875	-488.5477600097656	594.410400390625	856.7377319335938	-536.5447387695312	530.282470703125	851.6705322265625	-590.9763793945312	523.2823486328125	993.5017700195312	-593.0011596679688	600.603759765625	668.0188598632812	-529.7716674804688	559.9035034179688	769.0084228515625	-593.9718627929688	612.4887084960938	773.8365478515625	-545.7451782226562	534.8110961914062	1441.40283203125	-123.6053924560547	524.9425659179688	1374.611328125	-58.31291961669922	484.0721740722656	1116.861694335938	-7.362936496734619	495.9797668457031	1087.138061523438	-101.2061462402344	629.091064453125	865.8026733398438	-41.48844528198242	564.466064453125	850.7489013671875	14.58101081848145	497.8760986328125	1035.323120117188	5.646131992340088	631.1799926757812	680.7675170898438	-61.56517028808594	656.9638061523438	764.515625	-40.64410781860352	605.5381469726562	761.6753540039062	17.3068675994873	514.8456420898438	1659.662475585938	-360.4254455566406	679.4829711914062	1670.942504882812	-220.828125	692.1337280273438	1680.292602539062	-346.1782531738281	509.9938354492188	1641.802490234375	-223.735107421875	465.1216430664062	946.5703735351562	-450.1512451171875	460.9198608398438	954.4987182617188	-105.4738235473633	584.4124145507812	962.6422119140625	-136.1902618408203	579.7195434570312	953.648193359375	-402.1338500976562	636.975341796875	504.5546875	-387.5247192382812	571.5311889648438	631.5276489257812	-431.5568237304688	558.1538696289062	39.97294616699219	-382.3591613769531	596.758544921875	254.2821350097656	-398.5372009277344	762.6681518554688	35.699951171875	-375.147216796875	715.1343383789062	36.25040435791016	-322.9966735839844	662.5215454101562	31.05958366394043	-422.2108459472656	506.0462036132812	41.95660400390625	-305.6988830566406	508.5453491210938	503.3208312988281	-113.8172073364258	532.207763671875	775.9815673828125	-102.0469207763672	156.2793121337891	148.523193359375	-86.83944702148438	428.6546936035156	401.3701477050781	-97.87961578369141	312.3622741699219	35.92200088500977	-166.0304260253906	264.1192932128906	72.13705444335938	-191.7390747070312	253.0088043212891	71.58149719238281	-93.94538879394531	118.7497711181641	188.9087524414062	-134.5052795410156	
265	2.64	389.1976623535156	1027.268310546875	-178.1226501464844	361.5714721679688	1013.162658691406	-352.2980651855469	381.3757934570312	1082.661254882812	-271.2392578125	646.8831787109375	1260.15087890625	-299.2577819824219	376.7897338867188	1217.394897460938	-276.21435546875	452.4363708496094	1478.625366210938	-291.6712036132812	625.466064453125	1376.96923828125	-301.6109313964844	386.5629577636719	1346.702026367188	-207.1056671142578	420.9866027832031	1441.53076171875	-390.0382690429688	519.9298095703125	1438.781982421875	-468.7258605957031	490.99560546875	1314.858032226562	-546.91845703125	500.6631774902344	1101.569702148438	-576.2225341796875	444.558837890625	1085.008178710938	-486.4015197753906	587.2977905273438	855.9818725585938	-534.9577026367188	522.9126586914062	850.7540893554688	-589.0737915039062	515.6910400390625	992.571044921875	-591.1468505859375	593.837158203125	667.2835083007812	-528.0658569335938	552.6665649414062	768.1151733398438	-592.1414794921875	605.4714965820312	773.0838012695312	-544.1868896484375	528.5149536132812	1440.587280273438	-121.618537902832	518.8782348632812	1373.784301757812	-56.27233505249023	478.7834777832031	1115.941528320312	-4.882054805755615	490.1594543457031	1086.2119140625	-98.82431793212891	625.2654418945312	865.8563232421875	-40.06069183349609	561.0009155273438	850.1912231445312	16.24872398376465	493.0483703613281	1034.345458984375	8.045820236206055	628.6897583007812	680.936767578125	-60.52040863037109	653.9176635742188	764.7962646484375	-39.53096771240234	602.7051391601562	761.429931640625	18.58475494384766	507.8680114746094	1658.49169921875	-358.6023254394531	672.7197875976562	1670.188232421875	-219.2910308837891	685.1389770507812	1679.445678710938	-344.6564331054688	503.2836608886719	1640.765502929688	-221.8813781738281	458.3779296875	946.2207641601562	-448.4599304199219	452.71923828125	953.5328369140625	-103.7724456787109	576.5380249023438	961.3200073242188	-134.0205993652344	572.771240234375	953.091552734375	-400.0062561035156	632.6535034179688	505.2250061035156	-386.3237609863281	566.5740966796875	631.7605590820312	-430.4617004394531	558.1207885742188	39.91593933105469	-382.4317321777344	594.8179931640625	254.5808563232422	-398.1234741210938	762.558837890625	35.54463577270508	-375.1394653320312	715.1171875	36.12929534912109	-322.970458984375	662.5260620117188	31.03064346313477	-422.208251953125	506.0529174804688	41.78744506835938	-305.7420654296875	495.2456359863281	502.549560546875	-112.5231094360352	522.3729858398438	774.9276733398438	-100.3394165039062	147.2949981689453	143.0714721679688	-87.56627655029297	415.9368591308594	399.9397277832031	-97.03298950195312	305.0962829589844	35.62588500976562	-166.8682861328125	256.5856628417969	69.40689086914062	-192.2713317871094	245.4646759033203	68.20145416259766	-94.54008483886719	109.1961135864258	182.9208984375	-135.2134857177734	
266	2.65	381.294677734375	1026.487060546875	-176.4075927734375	354.2331848144531	1012.560363769531	-350.7080993652344	373.9286499023438	1081.881225585938	-269.2570495605469	639.8817749023438	1258.9931640625	-297.2081909179688	369.782958984375	1216.611938476562	-273.8482360839844	445.73583984375	1477.727294921875	-289.4180908203125	618.623046875	1375.840209960938	-299.6415100097656	379.8015747070312	1345.94580078125	-204.6978149414062	414.0620422363281	1440.6240234375	-387.7425537109375	512.8818969726562	1437.705932617188	-466.5697326660156	483.6622924804688	1313.822387695312	-544.5888671875	493.0290222167969	1100.598266601562	-574.1867065429688	437.2616271972656	1083.971435546875	-484.170654296875	580.1647338867188	855.1917724609375	-533.1941528320312	515.5548095703125	849.7870483398438	-587.0277709960938	508.0944519042969	991.5927734375	-589.1630249023438	587.06689453125	666.514892578125	-526.1576538085938	545.4500732421875	767.1798706054688	-590.1464233398438	598.4468383789062	772.2930297851562	-542.4371337890625	522.07666015625	1439.72412109375	-119.5481033325195	512.6464233398438	1372.913208007812	-54.15107345581055	473.3338928222656	1114.9775390625	-2.298894643783569	484.1916809082031	1085.237060546875	-96.34024047851562	621.3242797851562	865.9402465820312	-38.56803894042969	557.4196166992188	849.6166381835938	17.94897079467773	488.0331726074219	1033.31884765625	10.5276517868042	626.1983642578125	681.1709594726562	-59.486572265625	650.8118286132812	765.1340942382812	-38.38666534423828	599.7984008789062	761.191650390625	19.87451553344727	500.8205871582031	1657.276000976562	-356.70458984375	665.8861083984375	1669.3876953125	-217.6749877929688	678.075439453125	1678.54150390625	-343.0622863769531	496.5119323730469	1639.70068359375	-219.9544219970703	451.4596862792969	945.7998657226562	-446.6561584472656	444.4091186523438	952.5645141601562	-101.9684829711914	568.4794921875	960.023681640625	-131.7533111572266	565.6627197265625	952.4871215820312	-397.7831115722656	628.1309814453125	505.8637084960938	-385.0582275390625	561.4544067382812	631.960693359375	-429.2841186523438	558.082763671875	39.86114883422852	-382.5001525878906	592.7906494140625	254.8849029541016	-397.6512145996094	762.462890625	35.37264633178711	-375.1673583984375	715.1032104492188	36.01819610595703	-322.9789733886719	662.5160522460938	30.98621940612793	-422.2249145507812	506.0611877441406	41.62666320800781	-305.7741088867188	482.1524353027344	501.80322265625	-111.3475952148438	512.4803466796875	773.8611450195312	-98.55794525146484	139.2330017089844	137.2071533203125	-88.33119964599609	403.5876770019531	398.4761047363281	-96.29029846191406	299.2413940429688	35.57699966430664	-167.4443817138672	250.3205413818359	66.68316650390625	-192.6544952392578	239.1523132324219	64.92317962646484	-95.00077056884766	100.40380859375	176.3081817626953	-136.0067291259766	
267	2.66	373.05224609375	1025.696899414062	-174.6242370605469	346.7473449707031	1011.895385742188	-349.0282592773438	366.3252563476562	1081.122314453125	-267.2019653320312	632.7451782226562	1257.791259765625	-295.0361938476562	362.6221008300781	1215.824462890625	-271.459228515625	438.9369812011719	1476.8212890625	-287.0986328125	611.6680297851562	1374.6669921875	-297.5593566894531	372.9063720703125	1345.185302734375	-202.2538299560547	407.0715637207031	1439.712158203125	-385.4022521972656	505.7855834960938	1436.594848632812	-464.3339233398438	476.2996215820312	1312.749267578125	-542.1707763671875	485.3753356933594	1099.586181640625	-572.0425415039062	429.9031066894531	1082.89990234375	-481.857666015625	573.0114135742188	854.3685302734375	-531.26025390625	508.2076721191406	848.7762451171875	-584.8445434570312	500.4935607910156	990.5728149414062	-587.0550537109375	580.2950439453125	665.7183837890625	-524.0584106445312	538.252685546875	766.2088623046875	-587.9945678710938	591.416015625	771.4707641601562	-540.5039672851562	515.4918823242188	1438.819946289062	-117.3955917358398	506.2419128417969	1372.004150390625	-51.9504280090332	467.71484375	1113.973754882812	0.387229859828949	478.0738525390625	1084.219970703125	-93.74916076660156	617.2538452148438	866.0564575195312	-37.01008987426758	553.7102661132812	849.0322875976562	19.68485069274902	482.8254089355469	1032.250610351562	13.09130764007568	623.6790161132812	681.4707641601562	-58.46138763427734	647.6259155273438	765.5298461914062	-37.21179580688477	596.80322265625	760.9654541015625	21.18117141723633	493.7072448730469	1656.026245117188	-354.7334899902344	658.9840087890625	1668.545776367188	-215.9821929931641	670.9478759765625	1677.586181640625	-341.3983459472656	489.6799926757812	1638.615112304688	-217.9553375244141	444.3734436035156	945.3094482421875	-444.739013671875	435.9718322753906	951.5995483398438	-100.0566024780273	560.2271728515625	958.763671875	-129.3797454833984	558.3949584960938	951.8382568359375	-395.453857421875	623.3942260742188	506.46728515625	-383.7300415039062	556.1521606445312	632.12451171875	-428.018798828125	558.0325927734375	39.80776977539062	-382.5663452148438	590.6704711914062	255.1990509033203	-397.1171264648438	762.3748779296875	35.22874450683594	-375.23779296875	715.0828857421875	35.95561981201172	-323.0294189453125	662.48193359375	30.9349536895752	-422.2631530761719	506.0621032714844	41.46953964233398	-305.7976989746094	469.329833984375	501.0640869140625	-110.3148956298828	502.5260620117188	772.7555541992188	-96.68413543701172	132.0493621826172	131.0572814941406	-89.12591552734375	391.6610412597656	396.9735412597656	-95.67327880859375	294.6837158203125	35.72665405273438	-167.7908782958984	245.2086334228516	64.03563690185547	-192.9192504882812	233.9639739990234	61.8295783996582	-95.3525390625	92.34563446044922	169.2289428710938	-136.8622436523438	
